<?xml version="1.0" encoding="utf-8"?>
<!-- Generator: Adobe Illustrator 16.0.0, SVG Export Plug-In . SVG Version: 6.00 Build 0)  -->
<!DOCTYPE svg PUBLIC "-//W3C//DTD SVG 1.1//EN" "http://www.w3.org/Graphics/SVG/1.1/DTD/svg11.dtd">
<svg version="1.1" id="图层_1" xmlns="http://www.w3.org/2000/svg" xmlns:xlink="http://www.w3.org/1999/xlink" x="0px" y="0px"
	 width="640px" height="1136px" viewBox="0 0 640 1136" enable-background="new 0 0 640 1136" xml:space="preserve">
<rect fill="#596D97" width="640" height="1136"/>
<g>
	<defs>
		<polygon id="SVGID_1_" points="232.527,275.442 187.503,306.656 190.115,251.933 146.516,218.758 199.368,204.332 
			217.446,152.615 247.499,198.422 302.271,199.634 267.992,242.371 283.765,294.837 		"/>
	</defs>
	<clipPath id="SVGID_2_">
		<use xlink:href="#SVGID_1_"  overflow="visible"/>
	</clipPath>
	
		<rect x="143.078" y="147.059" transform="matrix(-0.9925 0.1219 -0.1219 -0.9925 479.0173 424.0629)" clip-path="url(#SVGID_2_)" fill="#F8E71C" width="166.924" height="159.244"/>
</g>
<rect fill-rule="evenodd" clip-rule="evenodd" fill="none" width="640" height="1136"/>
<g>
	<defs>
		<path id="SVGID_3_" d="M231.38,213.638c0,0-9.014-14.988-23.303-4.617c-14.29,10.372-11.535,24.469-2.944,34.646
			c8.592,10.177,25.692,22.411,25.692,22.411s37.759-28.531,37.759-40.486c0-11.955-9.373-22.883-17.712-22.883
			S231.38,213.638,231.38,213.638z"/>
	</defs>
	<clipPath id="SVGID_4_">
		<use xlink:href="#SVGID_3_"  overflow="visible"/>
	</clipPath>
	<rect x="193.025" y="197.709" clip-path="url(#SVGID_4_)" fill="#E76049" width="80.56" height="73.369"/>
</g>
<rect fill-rule="evenodd" clip-rule="evenodd" fill="none" width="640" height="1136"/>
<g>
	<defs>
		<path id="SVGID_5_" d="M207.085,232.049c0,0-12.476-10.597-16.587,1.108s16.453,26.688,16.453,26.688s23.527-14.601,20.272-26.011
			S207.085,232.049,207.085,232.049z"/>
	</defs>
	<clipPath id="SVGID_6_">
		<use xlink:href="#SVGID_5_"  overflow="visible"/>
	</clipPath>
	<rect x="184.955" y="222.651" clip-path="url(#SVGID_6_)" fill="#F58277" width="47.577" height="42.194"/>
</g>
<rect fill-rule="evenodd" clip-rule="evenodd" fill="none" width="640" height="1136"/>
<g>
	<defs>
		<polygon id="SVGID_7_" points="491.312,338.875 459.994,374.563 450.717,327.998 407.098,309.242 448.518,286.029 
			452.877,238.749 487.753,270.968 534.065,260.503 514.201,303.629 538.465,344.442 		"/>
	</defs>
	<clipPath id="SVGID_8_">
		<use xlink:href="#SVGID_7_"  overflow="visible"/>
	</clipPath>
	
		<rect x="403.053" y="229.453" transform="matrix(-0.9336 0.3584 -0.3584 -0.9336 1027.6844 407.7812)" clip-path="url(#SVGID_8_)" fill="#F8E71C" width="146.001" height="139.345"/>
</g>
<rect fill-rule="evenodd" clip-rule="evenodd" fill="none" width="640" height="1136"/>
<g>
	<defs>
		<polygon id="SVGID_9_" points="451.119,284.631 500.611,280.923 500.965,286.735 451.393,288.339 		"/>
	</defs>
	<clipPath id="SVGID_10_">
		<use xlink:href="#SVGID_9_"  overflow="visible"/>
	</clipPath>
	<rect x="446.119" y="275.923" clip-path="url(#SVGID_10_)" fill="#A47F5E" width="59.846" height="17.416"/>
</g>
<rect fill-rule="evenodd" clip-rule="evenodd" fill="none" width="640" height="1136"/>
<g>
	<defs>
		<path id="SVGID_11_" d="M430.873,314.293c0,0-2.331,19.844,8.204,28.937c10.534,9.093,18.349,10.682,25.978,10.682
			s20.218-1.85,25.971-10.83s9.821-23.874,9.821-27.045s-14.111-8.284-14.111-8.284L430.873,314.293z"/>
	</defs>
	<clipPath id="SVGID_12_">
		<use xlink:href="#SVGID_11_"  overflow="visible"/>
	</clipPath>
	<rect x="425.653" y="302.753" clip-path="url(#SVGID_12_)" fill="#889798" width="80.193" height="56.159"/>
</g>
<rect fill-rule="evenodd" clip-rule="evenodd" fill="none" width="640" height="1136"/>
<g>
	<defs>
		<polygon id="SVGID_13_" points="451.237,290.666 450.723,294.257 502.017,296.552 501.898,290.571 		"/>
	</defs>
	<clipPath id="SVGID_14_">
		<use xlink:href="#SVGID_13_"  overflow="visible"/>
	</clipPath>
	<rect x="445.723" y="285.571" clip-path="url(#SVGID_14_)" fill="#A47F5E" width="61.294" height="15.981"/>
</g>
<rect fill-rule="evenodd" clip-rule="evenodd" fill="none" width="640" height="1136"/>
<g>
	<defs>
		<path id="SVGID_15_" d="M430.54,315.742c0-10.874,19.452-17.384,30.797-17.384c11.346,0,37.677,4.018,38.795,14.832
			c1.118,10.815-14.949,21.101-33.298,20.159C448.484,332.406,430.54,326.615,430.54,315.742z"/>
	</defs>
	<clipPath id="SVGID_16_">
		<use xlink:href="#SVGID_15_"  overflow="visible"/>
	</clipPath>
	<rect x="425.54" y="293.357" clip-path="url(#SVGID_16_)" fill="#B5C6C2" width="79.647" height="45.051"/>
</g>
<rect fill-rule="evenodd" clip-rule="evenodd" fill="none" width="640" height="1136"/>
<g>
	<defs>
		<rect id="SVGID_17_" width="640" height="1136"/>
	</defs>
	<clipPath id="SVGID_18_">
		<use xlink:href="#SVGID_17_"  overflow="visible"/>
	</clipPath>
	<g clip-path="url(#SVGID_18_)">
		<defs>
			<path id="SVGID_19_" d="M435.014,315.747c-0.823-7.283,16.187-13.817,27.178-13.817c10.992,0,31.481,3.76,33.365,11.875
				c1.884,8.115-10.779,17.509-28.524,17.509S435.838,323.03,435.014,315.747z"/>
		</defs>
		<clipPath id="SVGID_20_">
			<use xlink:href="#SVGID_19_"  overflow="visible"/>
		</clipPath>
		<rect x="429.985" y="296.93" clip-path="url(#SVGID_20_)" fill="#FBAE50" width="70.757" height="39.384"/>
	</g>
</g>
<line fill="none" stroke="#F1EFEA" stroke-width="5" stroke-miterlimit="10" x1="456.901" y1="282.332" x2="457.196" y2="309.679"/>
<line fill="none" stroke="#F1EFEA" stroke-width="5" stroke-miterlimit="10" x1="465.855" y1="280.337" x2="465.855" y2="314.924"/>
<path fill="none" stroke="#F1EFEA" stroke-width="5" stroke-miterlimit="10" d="M468.879,306.994c0,0-21.469-4.236-21.469,5.062
	s8.991,9.248,15.229,6.607c6.239-2.641,17.238-9.755,23.822-4.29c6.585,5.466-3.84,12.839-8.776,12.839
	c-4.938,0-8.638-7.421-3.709-9.006"/>
<path fill="none" stroke="#F1EFEA" stroke-width="5" stroke-miterlimit="10" d="M440.178,312.874c0,0,0.419,8.042,6.518,11.47
	c6.1,3.428,13.618,2.288,13.618,2.288"/>
<rect fill-rule="evenodd" clip-rule="evenodd" fill="none" width="640" height="1136"/>
<g>
	<defs>
		<rect id="SVGID_21_" width="640" height="1136"/>
	</defs>
	<clipPath id="SVGID_22_">
		<use xlink:href="#SVGID_21_"  overflow="visible"/>
	</clipPath>
	<g clip-path="url(#SVGID_22_)">
		<defs>
			<polygon id="SVGID_23_" points="99.458,470.333 53.538,482.408 71.886,438.616 46.212,398.675 93.531,402.592 123.584,365.833 
				134.481,412.046 178.728,429.269 138.144,453.913 135.438,501.316 			"/>
		</defs>
		<clipPath id="SVGID_24_">
			<use xlink:href="#SVGID_23_"  overflow="visible"/>
		</clipPath>
		
			<rect x="36.035" y="359.175" transform="matrix(-0.9744 -0.225 0.225 -0.9744 118.8072 871.2313)" clip-path="url(#SVGID_24_)" fill="#F8E71C" width="146.001" height="139.345"/>
	</g>
</g>
<g>
	<defs>
		<rect id="SVGID_25_" width="640" height="1136"/>
	</defs>
	<clipPath id="SVGID_26_">
		<use xlink:href="#SVGID_25_"  overflow="visible"/>
	</clipPath>
	<g clip-path="url(#SVGID_26_)">
		<defs>
			<path id="SVGID_27_" d="M95.861,468.429c5.215-3.405-1.298-11.912-1.298-17.907s4.235-15.262,2.767-18.582
				c-1.469-3.32-6.066-10.685-13.778-7.116c-7.713,3.569-12.601,14.084-7.095,25.72C81.962,462.18,90.647,471.834,95.861,468.429z"
				/>
		</defs>
		<clipPath id="SVGID_28_">
			<use xlink:href="#SVGID_27_"  overflow="visible"/>
		</clipPath>
		<rect x="69.103" y="418.871" clip-path="url(#SVGID_28_)" fill="#C08F64" width="33.781" height="55.251"/>
	</g>
</g>
<g>
	<defs>
		<rect id="SVGID_29_" width="640" height="1136"/>
	</defs>
	<clipPath id="SVGID_30_">
		<use xlink:href="#SVGID_29_"  overflow="visible"/>
	</clipPath>
	<g clip-path="url(#SVGID_30_)">
		<defs>
			<path id="SVGID_31_" d="M106.93,451.963c5.662,5.151,12.651-0.128,17.249-7.102s9.195-18.78,7.379-23.378
				c-1.816-4.598-3.842-12.318-13.445-9.99c-9.604,2.327-10.032,6.961-10.032,13.388c0,6.428,5.591,11.87,2.795,13.963
				C108.08,440.937,101.268,446.812,106.93,451.963z"/>
		</defs>
		<clipPath id="SVGID_32_">
			<use xlink:href="#SVGID_31_"  overflow="visible"/>
		</clipPath>
		<rect x="99.746" y="406.065" clip-path="url(#SVGID_32_)" fill="#C08F64" width="37.218" height="52.963"/>
	</g>
</g>
<g>
	<defs>
		<rect id="SVGID_33_" width="640" height="1136"/>
	</defs>
	<clipPath id="SVGID_34_">
		<use xlink:href="#SVGID_33_"  overflow="visible"/>
	</clipPath>
	<g clip-path="url(#SVGID_34_)">
		<defs>
			<path id="SVGID_35_" d="M103.711,403.731c2.32-1.731,5.601,0.464,6.084,2.422c0.482,1.958,1.812,5.499-0.99,6.435
				c-2.803,0.937-6.513-0.121-6.513-3.47C102.292,405.771,101.392,405.462,103.711,403.731z"/>
		</defs>
		<clipPath id="SVGID_36_">
			<use xlink:href="#SVGID_35_"  overflow="visible"/>
		</clipPath>
		<rect x="97.12" y="398.104" clip-path="url(#SVGID_36_)" fill="#C08F64" width="18.416" height="19.811"/>
	</g>
</g>
<g>
	<defs>
		<rect id="SVGID_37_" width="640" height="1136"/>
	</defs>
	<clipPath id="SVGID_38_">
		<use xlink:href="#SVGID_37_"  overflow="visible"/>
	</clipPath>
	<g clip-path="url(#SVGID_38_)">
		<defs>
			<path id="SVGID_39_" d="M114.961,401.428c1.217,0,3.026,1.164,3.026,2.799c0,1.635-0.263,4.576-2.015,4.576
				c-1.752,0-3.306-1.476-3.306-3.601C112.666,403.078,113.744,401.428,114.961,401.428z"/>
		</defs>
		<clipPath id="SVGID_40_">
			<use xlink:href="#SVGID_39_"  overflow="visible"/>
		</clipPath>
		<rect x="107.666" y="396.428" clip-path="url(#SVGID_40_)" fill="#C08F64" width="15.321" height="17.375"/>
	</g>
</g>
<g>
	<defs>
		<rect id="SVGID_41_" width="640" height="1136"/>
	</defs>
	<clipPath id="SVGID_42_">
		<use xlink:href="#SVGID_41_"  overflow="visible"/>
	</clipPath>
	<g clip-path="url(#SVGID_42_)">
		<defs>
			<path id="SVGID_43_" d="M122.656,403.067c2.27,0.88,2.072,3.229,2.072,4.094c0,0.866-1.334,2.426-2.718,2.426
				c-1.383,0-2.937-2.072-2.458-3.881C120.03,403.897,120.385,402.188,122.656,403.067z"/>
		</defs>
		<clipPath id="SVGID_44_">
			<use xlink:href="#SVGID_43_"  overflow="visible"/>
		</clipPath>
		<rect x="114.463" y="397.829" clip-path="url(#SVGID_44_)" fill="#C08F64" width="15.269" height="16.758"/>
	</g>
</g>
<g>
	<defs>
		<rect id="SVGID_45_" width="640" height="1136"/>
	</defs>
	<clipPath id="SVGID_46_">
		<use xlink:href="#SVGID_45_"  overflow="visible"/>
	</clipPath>
	<g clip-path="url(#SVGID_46_)">
		<defs>
			<path id="SVGID_47_" d="M130.838,407.183c1.493,1.352,0.411,3.484-0.525,4.041s-2.816,0.805-3.657-0.319s0.535-3.814,1.498-4.349
				C129.116,406.02,129.344,405.832,130.838,407.183z"/>
		</defs>
		<clipPath id="SVGID_48_">
			<use xlink:href="#SVGID_47_"  overflow="visible"/>
		</clipPath>
		<rect x="121.394" y="401.152" clip-path="url(#SVGID_48_)" fill="#C08F64" width="15.182" height="15.543"/>
	</g>
</g>
<g>
	<defs>
		<rect id="SVGID_49_" width="640" height="1136"/>
	</defs>
	<clipPath id="SVGID_50_">
		<use xlink:href="#SVGID_49_"  overflow="visible"/>
	</clipPath>
	<g clip-path="url(#SVGID_50_)">
		<defs>
			<path id="SVGID_51_" d="M131.808,416.972c0,0-1.504-3.083,0.791-3.65c2.295-0.568,3.672,1.069,3.672,1.447
				s0.433,1.516-1.02,2.616S131.808,416.972,131.808,416.972z"/>
		</defs>
		<clipPath id="SVGID_52_">
			<use xlink:href="#SVGID_51_"  overflow="visible"/>
		</clipPath>
		<rect x="126.323" y="408.203" clip-path="url(#SVGID_52_)" fill="#C08F64" width="15.007" height="14.582"/>
	</g>
</g>
<g>
	<defs>
		<rect id="SVGID_53_" width="640" height="1136"/>
	</defs>
	<clipPath id="SVGID_54_">
		<use xlink:href="#SVGID_53_"  overflow="visible"/>
	</clipPath>
	<g clip-path="url(#SVGID_54_)">
		<defs>
			<path id="SVGID_55_" d="M100.709,416.882c3.813,1.674,2.274,6.048,1.628,7.091c-0.646,1.043-3.683,4.072-5.867,2.036
				c-2.185-2.036-2.308-4.36-0.392-6.744C97.994,416.882,96.896,415.208,100.709,416.882z"/>
		</defs>
		<clipPath id="SVGID_56_">
			<use xlink:href="#SVGID_55_"  overflow="visible"/>
		</clipPath>
		<rect x="89.73" y="411.205" clip-path="url(#SVGID_56_)" fill="#C08F64" width="18.465" height="20.492"/>
	</g>
</g>
<g>
	<defs>
		<rect id="SVGID_57_" width="640" height="1136"/>
	</defs>
	<clipPath id="SVGID_58_">
		<use xlink:href="#SVGID_57_"  overflow="visible"/>
	</clipPath>
	<g clip-path="url(#SVGID_58_)">
		<defs>
			<path id="SVGID_59_" d="M89.84,415.044c1.752,0,2.756,2.034,2.756,3.364s-0.148,3.395-2.185,3.395s-3.108-1.897-3.108-3.427
				S88.087,415.044,89.84,415.044z"/>
		</defs>
		<clipPath id="SVGID_60_">
			<use xlink:href="#SVGID_59_"  overflow="visible"/>
		</clipPath>
		<rect x="82.303" y="410.044" clip-path="url(#SVGID_60_)" fill="#C08F64" width="15.293" height="16.758"/>
	</g>
</g>
<g>
	<defs>
		<rect id="SVGID_61_" width="640" height="1136"/>
	</defs>
	<clipPath id="SVGID_62_">
		<use xlink:href="#SVGID_61_"  overflow="visible"/>
	</clipPath>
	<g clip-path="url(#SVGID_62_)">
		<defs>
			<path id="SVGID_63_" d="M81.604,417.223c1.777-0.617,2.898,0.749,3.487,1.948s0.885,2.987-0.43,3.689
				c-1.314,0.703-3.695-0.54-4.263-2.114C79.831,419.17,79.828,417.84,81.604,417.223z"/>
		</defs>
		<clipPath id="SVGID_64_">
			<use xlink:href="#SVGID_63_"  overflow="visible"/>
		</clipPath>
		<rect x="75.062" y="412.069" clip-path="url(#SVGID_64_)" fill="#C08F64" width="15.529" height="15.991"/>
	</g>
</g>
<g>
	<defs>
		<rect id="SVGID_65_" width="640" height="1136"/>
	</defs>
	<clipPath id="SVGID_66_">
		<use xlink:href="#SVGID_65_"  overflow="visible"/>
	</clipPath>
	<g clip-path="url(#SVGID_66_)">
		<defs>
			<path id="SVGID_67_" d="M75.283,420.053c1.646-1.383,3.119-0.142,3.679,0.837c0.561,0.979,1.046,2.87-0.223,4.044
				c-1.27,1.174-3.189,0.521-3.966-1.114C73.996,422.186,73.637,421.436,75.283,420.053z"/>
		</defs>
		<clipPath id="SVGID_68_">
			<use xlink:href="#SVGID_67_"  overflow="visible"/>
		</clipPath>
		<rect x="69.118" y="414.437" clip-path="url(#SVGID_68_)" fill="#C08F64" width="15.421" height="16.095"/>
	</g>
</g>
<g>
	<defs>
		<rect id="SVGID_69_" width="640" height="1136"/>
	</defs>
	<clipPath id="SVGID_70_">
		<use xlink:href="#SVGID_69_"  overflow="visible"/>
	</clipPath>
	<g clip-path="url(#SVGID_70_)">
		<defs>
			<path id="SVGID_71_" d="M69.462,426.825c1.213-1.799,3.213-0.103,3.948,0.798c0.734,0.901,1.596,2.551,0.28,3.686
				s-2.767,0.677-3.952-0.564C68.554,429.504,68.249,428.624,69.462,426.825z"/>
		</defs>
		<clipPath id="SVGID_72_">
			<use xlink:href="#SVGID_71_"  overflow="visible"/>
		</clipPath>
		<rect x="63.688" y="421.031" clip-path="url(#SVGID_72_)" fill="#C08F64" width="15.686" height="15.928"/>
	</g>
</g>
<g>
	<defs>
		<polygon id="SVGID_73_" points="185.209,738.146 139.29,750.22 157.638,706.428 131.964,666.486 179.283,670.403 209.335,633.645 
			220.232,679.857 264.479,697.08 223.895,721.725 221.188,769.128 		"/>
	</defs>
	<clipPath id="SVGID_74_">
		<use xlink:href="#SVGID_73_"  overflow="visible"/>
	</clipPath>
	
		<rect x="121.787" y="626.987" transform="matrix(-0.9744 -0.225 0.225 -0.9744 227.8652 1419.2798)" clip-path="url(#SVGID_74_)" fill="#F8E71C" width="146.001" height="139.344"/>
</g>
<rect fill-rule="evenodd" clip-rule="evenodd" fill="none" width="640" height="1136"/>
<g>
	<defs>
		<path id="SVGID_75_" d="M207.694,666.012c27.077,0,37.479,16.953,37.479,37.649c0,20.697-15.846,37.414-36.314,37.414
			s-39.233-9.632-39.233-37.465C169.625,675.776,180.617,666.012,207.694,666.012z"/>
	</defs>
	<clipPath id="SVGID_76_">
		<use xlink:href="#SVGID_75_"  overflow="visible"/>
	</clipPath>
	<rect x="164.625" y="661.012" clip-path="url(#SVGID_76_)" fill="#FBAE50" width="85.548" height="85.063"/>
</g>
<rect fill-rule="evenodd" clip-rule="evenodd" fill="none" width="640" height="1136"/>
<g>
	<defs>
		<rect id="SVGID_77_" width="640" height="1136"/>
	</defs>
	<clipPath id="SVGID_78_">
		<use xlink:href="#SVGID_77_"  overflow="visible"/>
	</clipPath>
	<path clip-path="url(#SVGID_78_)" fill="none" stroke="#A47F5E" stroke-width="6" stroke-miterlimit="10" d="M170.362,703.074
		c0,0,14.735,10.223,36.957,10.223c22.221,0,38.864-12.82,38.864-12.82"/>
	<path clip-path="url(#SVGID_78_)" fill="none" stroke="#A47F5E" stroke-width="6" stroke-miterlimit="10" d="M205.229,666.013
		c0,0-6.036,14.962-6.036,35.693s7.132,39.605,7.132,39.605"/>
	<path clip-path="url(#SVGID_78_)" fill="none" stroke="#A47F5E" stroke-width="6" stroke-miterlimit="10" d="M172.357,684.874
		c0,0,14.835,9.851,14.835,24.375s-11.279,17.493-11.279,17.493"/>
	<path clip-path="url(#SVGID_78_)" fill="none" stroke="#A47F5E" stroke-width="6" stroke-miterlimit="10" d="M236.616,677.146
		c0,0-18.19,18.571-18.19,34.36s13.775,20.63,13.775,20.63"/>
</g>
<g>
	<defs>
		<rect id="SVGID_79_" width="640" height="1136"/>
	</defs>
	<clipPath id="SVGID_80_">
		<use xlink:href="#SVGID_79_"  overflow="visible"/>
	</clipPath>
	<g clip-path="url(#SVGID_80_)">
		<defs>
			<polygon id="SVGID_81_" points="532.133,642.616 500.502,653.962 510.736,621.954 490.172,595.377 523.775,595.22 
				542.697,567.449 553.23,599.359 585.489,608.772 558.396,628.652 559.412,662.241 			"/>
		</defs>
		<clipPath id="SVGID_82_">
			<use xlink:href="#SVGID_81_"  overflow="visible"/>
		</clipPath>
		
			<rect x="483.199" y="562.003" transform="matrix(-0.9903 -0.1392 0.1392 -0.9903 982.1511 1294.2291)" clip-path="url(#SVGID_82_)" fill="#F8E71C" width="106.256" height="101.543"/>
	</g>
</g>
<g>
	<defs>
		<polygon id="SVGID_83_" points="347.605,525.332 313.042,537.729 324.225,502.754 301.754,473.713 338.473,473.542 
			359.148,443.196 370.658,478.065 405.908,488.351 376.303,510.073 377.412,546.776 		"/>
	</defs>
	<clipPath id="SVGID_84_">
		<use xlink:href="#SVGID_83_"  overflow="visible"/>
	</clipPath>
	
		<rect x="294.599" y="437.709" transform="matrix(-0.9903 -0.1392 0.1392 -0.9903 632.3737 1029.6683)" clip-path="url(#SVGID_84_)" fill="#F8E71C" width="115.178" height="110.03"/>
</g>
<rect fill-rule="evenodd" clip-rule="evenodd" fill="none" width="640" height="1136"/>
<g>
	<defs>
		<rect id="SVGID_85_" width="640" height="1136"/>
	</defs>
	<clipPath id="SVGID_86_">
		<use xlink:href="#SVGID_85_"  overflow="visible"/>
	</clipPath>
	<g clip-path="url(#SVGID_86_)">
		<defs>
			<path id="SVGID_87_" d="M347.396,478.004c0,0,0.188-7.154-1.361-11.087c-1.55-3.933-11.153-11.733-10.345-26.028
				c0.81-14.295,11.769-22.797,25.698-22.797c13.931,0,24.604,13.39,24.604,22.936s-8.758,19.988-9.998,24.259
				c-1.24,4.271-1.471,15.527-1.471,15.527l-16.812,2.272L347.396,478.004z"/>
		</defs>
		<clipPath id="SVGID_88_">
			<use xlink:href="#SVGID_87_"  overflow="visible"/>
		</clipPath>
		<rect x="330.643" y="413.092" clip-path="url(#SVGID_88_)" fill="#FBDF50" width="60.351" height="74.995"/>
	</g>
</g>
<g>
	<defs>
		<path id="SVGID_89_" d="M346.835,474.147l29.205,0.465c0,0-0.243,14.205-1.295,15.836c-1.051,1.631-6.619,7.057-13.214,7.057
			c-6.594,0-14.471-2.907-14.471-8.689C347.061,483.035,346.835,474.147,346.835,474.147z"/>
	</defs>
	<clipPath id="SVGID_90_">
		<use xlink:href="#SVGID_89_"  overflow="visible"/>
	</clipPath>
	<rect x="341.835" y="469.147" clip-path="url(#SVGID_90_)" fill="#9BAAB4" width="39.205" height="33.358"/>
</g>
<rect fill-rule="evenodd" clip-rule="evenodd" fill="none" width="640" height="1136"/>
<g>
	<defs>
		<rect id="SVGID_91_" width="640" height="1136"/>
	</defs>
	<clipPath id="SVGID_92_">
		<use xlink:href="#SVGID_91_"  overflow="visible"/>
	</clipPath>
	
		<line clip-path="url(#SVGID_92_)" fill="none" stroke="#CDD6DD" stroke-width="10" stroke-miterlimit="10" x1="344.211" y1="479.27" x2="376.771" y2="473.476"/>
	
		<line clip-path="url(#SVGID_92_)" fill="none" stroke="#CDD6DD" stroke-width="10" stroke-miterlimit="10" x1="345.117" y1="488.683" x2="377.35" y2="484.036"/>
</g>
<g>
	<defs>
		<path id="SVGID_93_" d="M353.388,435.555c2.661-2.03,5.099-9.824,6.983-9.824s4.072,8.713,7.021,10.157
			c2.947,1.444,10.394,1.227,11.165,3.003c0.771,1.776-5.55,4.543-6.856,8.302c-1.307,3.758,1.981,11.413,0.444,12.712
			c-1.538,1.299-5.051-4.06-10.277-4.06c-5.228,0-10.248,5.214-11.779,4.211c-1.531-1.002,0.311-8.229,0.311-11.401
			c0-3.171-7.671-6.912-7.671-9.358C342.728,436.849,350.726,437.585,353.388,435.555z"/>
	</defs>
	<clipPath id="SVGID_94_">
		<use xlink:href="#SVGID_93_"  overflow="visible"/>
	</clipPath>
	<rect x="337.728" y="420.73" opacity="0.2048" clip-path="url(#SVGID_94_)" fill="#AD7B65" width="45.895" height="44.454"/>
</g>
<rect fill-rule="evenodd" clip-rule="evenodd" fill="none" width="640" height="1136"/>
<g>
	<defs>
		<rect id="SVGID_95_" width="640" height="1136"/>
	</defs>
	<clipPath id="SVGID_96_">
		<use xlink:href="#SVGID_95_"  overflow="visible"/>
	</clipPath>
	<path clip-path="url(#SVGID_96_)" fill="none" stroke="#B5C6C2" stroke-width="6" stroke-miterlimit="10" d="M495.51,581.046
		c11.284,0,31.012,10.706,32.423,32.537s-17.152,30.575-32.263,30.575c-15.111,0-31.988-7.252-31.988-30.753
		C463.682,589.905,484.226,581.046,495.51,581.046z"/>
</g>
<g>
	<defs>
		<rect id="SVGID_97_" width="640" height="1136"/>
	</defs>
	<clipPath id="SVGID_98_">
		<use xlink:href="#SVGID_97_"  overflow="visible"/>
	</clipPath>
	<g clip-path="url(#SVGID_98_)">
		<defs>
			<path id="SVGID_99_" d="M495.33,575.381c2.934,0,7.861,2.987,7.861,6.499c0,3.511-1.314,6.986-6.53,6.986
				s-9.558-1.509-9.091-7.497C488.036,575.381,492.396,575.381,495.33,575.381z"/>
		</defs>
		<clipPath id="SVGID_100_">
			<use xlink:href="#SVGID_99_"  overflow="visible"/>
		</clipPath>
		<rect x="482.536" y="570.381" clip-path="url(#SVGID_100_)" fill="#FFFFFF" width="25.655" height="23.485"/>
	</g>
</g>
<g>
	<defs>
		<rect id="SVGID_101_" width="640" height="1136"/>
	</defs>
	<clipPath id="SVGID_102_">
		<use xlink:href="#SVGID_101_"  overflow="visible"/>
	</clipPath>
	<g clip-path="url(#SVGID_102_)">
		<defs>
			<path id="SVGID_103_" d="M519.231,584.064c2.934,0,7.86,2.987,7.86,6.499c0,3.511-1.313,6.987-6.529,6.987
				s-9.558-1.51-9.091-7.498C511.938,584.064,516.297,584.064,519.231,584.064z"/>
		</defs>
		<clipPath id="SVGID_104_">
			<use xlink:href="#SVGID_103_"  overflow="visible"/>
		</clipPath>
		<rect x="506.437" y="579.064" clip-path="url(#SVGID_104_)" fill="#FFFFFF" width="25.655" height="23.486"/>
	</g>
</g>
<g>
	<defs>
		<rect id="SVGID_105_" width="640" height="1136"/>
	</defs>
	<clipPath id="SVGID_106_">
		<use xlink:href="#SVGID_105_"  overflow="visible"/>
	</clipPath>
	<g clip-path="url(#SVGID_106_)">
		<defs>
			<path id="SVGID_107_" d="M527.326,606.836c2.935,0,7.861,2.987,7.861,6.498c0,3.512-1.314,6.987-6.529,6.987
				c-5.216,0-9.558-1.51-9.092-7.497C520.033,606.836,524.393,606.836,527.326,606.836z"/>
		</defs>
		<clipPath id="SVGID_108_">
			<use xlink:href="#SVGID_107_"  overflow="visible"/>
		</clipPath>
		<rect x="514.532" y="601.836" clip-path="url(#SVGID_108_)" fill="#FFFFFF" width="25.655" height="23.485"/>
	</g>
</g>
<g>
	<defs>
		<rect id="SVGID_109_" width="640" height="1136"/>
	</defs>
	<clipPath id="SVGID_110_">
		<use xlink:href="#SVGID_109_"  overflow="visible"/>
	</clipPath>
	<g clip-path="url(#SVGID_110_)">
		<defs>
			<path id="SVGID_111_" d="M519.168,629.606c2.934,0,7.861,2.987,7.861,6.499c0,3.511-1.314,6.987-6.53,6.987
				s-9.558-1.51-9.091-7.498C511.874,629.606,516.234,629.606,519.168,629.606z"/>
		</defs>
		<clipPath id="SVGID_112_">
			<use xlink:href="#SVGID_111_"  overflow="visible"/>
		</clipPath>
		<rect x="506.374" y="624.606" clip-path="url(#SVGID_112_)" fill="#FFFFFF" width="25.655" height="23.486"/>
	</g>
</g>
<g>
	<defs>
		<rect id="SVGID_113_" width="640" height="1136"/>
	</defs>
	<clipPath id="SVGID_114_">
		<use xlink:href="#SVGID_113_"  overflow="visible"/>
	</clipPath>
	<g clip-path="url(#SVGID_114_)">
		<defs>
			<path id="SVGID_115_" d="M495.534,639.602c2.935,0,7.861,2.987,7.861,6.498c0,3.512-1.314,6.987-6.53,6.987
				c-5.215,0-9.558-1.51-9.091-7.498C488.24,639.602,492.601,639.602,495.534,639.602z"/>
		</defs>
		<clipPath id="SVGID_116_">
			<use xlink:href="#SVGID_115_"  overflow="visible"/>
		</clipPath>
		<rect x="482.74" y="634.602" clip-path="url(#SVGID_116_)" fill="#FFFFFF" width="25.655" height="23.485"/>
	</g>
</g>
<g>
	<defs>
		<rect id="SVGID_117_" width="640" height="1136"/>
	</defs>
	<clipPath id="SVGID_118_">
		<use xlink:href="#SVGID_117_"  overflow="visible"/>
	</clipPath>
	<g clip-path="url(#SVGID_118_)">
		<defs>
			<path id="SVGID_119_" d="M471.557,628.99c2.934,0,7.86,2.987,7.86,6.499c0,3.511-1.313,6.986-6.529,6.986
				s-9.558-1.509-9.091-7.497C464.263,628.99,468.622,628.99,471.557,628.99z"/>
		</defs>
		<clipPath id="SVGID_120_">
			<use xlink:href="#SVGID_119_"  overflow="visible"/>
		</clipPath>
		<rect x="458.762" y="623.99" clip-path="url(#SVGID_120_)" fill="#FFFFFF" width="25.655" height="23.485"/>
	</g>
</g>
<g>
	<defs>
		<rect id="SVGID_121_" width="640" height="1136"/>
	</defs>
	<clipPath id="SVGID_122_">
		<use xlink:href="#SVGID_121_"  overflow="visible"/>
	</clipPath>
	<g clip-path="url(#SVGID_122_)">
		<defs>
			<path id="SVGID_123_" d="M463.603,606.836c2.934,0,7.86,2.987,7.86,6.498c0,3.512-1.313,6.987-6.529,6.987
				s-9.558-1.51-9.092-7.497C456.309,606.836,460.668,606.836,463.603,606.836z"/>
		</defs>
		<clipPath id="SVGID_124_">
			<use xlink:href="#SVGID_123_"  overflow="visible"/>
		</clipPath>
		<rect x="450.808" y="601.836" clip-path="url(#SVGID_124_)" fill="#FFFFFF" width="25.655" height="23.485"/>
	</g>
</g>
<g>
	<defs>
		<rect id="SVGID_125_" width="640" height="1136"/>
	</defs>
	<clipPath id="SVGID_126_">
		<use xlink:href="#SVGID_125_"  overflow="visible"/>
	</clipPath>
	<g clip-path="url(#SVGID_126_)">
		<defs>
			<path id="SVGID_127_" d="M471.761,584.064c2.934,0,7.861,2.987,7.861,6.499c0,3.511-1.314,6.987-6.53,6.987
				s-9.558-1.51-9.091-7.498C464.467,584.064,468.826,584.064,471.761,584.064z"/>
		</defs>
		<clipPath id="SVGID_128_">
			<use xlink:href="#SVGID_127_"  overflow="visible"/>
		</clipPath>
		<rect x="458.967" y="579.064" clip-path="url(#SVGID_128_)" fill="#FFFFFF" width="25.655" height="23.486"/>
	</g>
</g>
<g>
	<defs>
		<rect id="SVGID_129_" width="640" height="1136"/>
	</defs>
	<clipPath id="SVGID_130_">
		<use xlink:href="#SVGID_129_"  overflow="visible"/>
	</clipPath>
	<g clip-path="url(#SVGID_130_)">
		<defs>
			<path id="SVGID_131_" d="M488.067,581.764l15.248-0.058c0,0,0.36,7.777-8.26,7.777
				C486.435,589.483,488.067,581.764,488.067,581.764z"/>
		</defs>
		<clipPath id="SVGID_132_">
			<use xlink:href="#SVGID_131_"  overflow="visible"/>
		</clipPath>
		<rect x="482.944" y="576.706" clip-path="url(#SVGID_132_)" fill="#FBDF50" width="25.373" height="17.777"/>
	</g>
</g>
<g>
	<defs>
		<rect id="SVGID_133_" width="640" height="1136"/>
	</defs>
	<clipPath id="SVGID_134_">
		<use xlink:href="#SVGID_133_"  overflow="visible"/>
	</clipPath>
	<g clip-path="url(#SVGID_134_)">
		<defs>
			<path id="SVGID_135_" d="M511.969,590.447l15.248-0.057c0,0,0.36,7.776-8.26,7.776
				C510.336,598.167,511.969,590.447,511.969,590.447z"/>
		</defs>
		<clipPath id="SVGID_136_">
			<use xlink:href="#SVGID_135_"  overflow="visible"/>
		</clipPath>
		<rect x="506.846" y="585.391" clip-path="url(#SVGID_136_)" fill="#FBDF50" width="25.373" height="17.776"/>
	</g>
</g>
<g>
	<defs>
		<rect id="SVGID_137_" width="640" height="1136"/>
	</defs>
	<clipPath id="SVGID_138_">
		<use xlink:href="#SVGID_137_"  overflow="visible"/>
	</clipPath>
	<g clip-path="url(#SVGID_138_)">
		<defs>
			<path id="SVGID_139_" d="M520.064,613.219l15.247-0.058c0,0,0.36,7.776-8.26,7.776S520.064,613.219,520.064,613.219z"/>
		</defs>
		<clipPath id="SVGID_140_">
			<use xlink:href="#SVGID_139_"  overflow="visible"/>
		</clipPath>
		<rect x="514.94" y="608.161" clip-path="url(#SVGID_140_)" fill="#FBDF50" width="25.374" height="17.776"/>
	</g>
</g>
<g>
	<defs>
		<rect id="SVGID_141_" width="640" height="1136"/>
	</defs>
	<clipPath id="SVGID_142_">
		<use xlink:href="#SVGID_141_"  overflow="visible"/>
	</clipPath>
	<g clip-path="url(#SVGID_142_)">
		<defs>
			<path id="SVGID_143_" d="M511.905,635.99l15.248-0.058c0,0,0.36,7.776-8.26,7.776C510.272,643.709,511.905,635.99,511.905,635.99
				z"/>
		</defs>
		<clipPath id="SVGID_144_">
			<use xlink:href="#SVGID_143_"  overflow="visible"/>
		</clipPath>
		<rect x="506.782" y="630.933" clip-path="url(#SVGID_144_)" fill="#FBDF50" width="25.373" height="17.776"/>
	</g>
</g>
<g>
	<defs>
		<rect id="SVGID_145_" width="640" height="1136"/>
	</defs>
	<clipPath id="SVGID_146_">
		<use xlink:href="#SVGID_145_"  overflow="visible"/>
	</clipPath>
	<g clip-path="url(#SVGID_146_)">
		<defs>
			<path id="SVGID_147_" d="M488.271,645.984l15.248-0.058c0,0,0.36,7.776-8.26,7.776S488.271,645.984,488.271,645.984z"/>
		</defs>
		<clipPath id="SVGID_148_">
			<use xlink:href="#SVGID_147_"  overflow="visible"/>
		</clipPath>
		<rect x="483.148" y="640.927" clip-path="url(#SVGID_148_)" fill="#FBDF50" width="25.373" height="17.776"/>
	</g>
</g>
<g>
	<defs>
		<rect id="SVGID_149_" width="640" height="1136"/>
	</defs>
	<clipPath id="SVGID_150_">
		<use xlink:href="#SVGID_149_"  overflow="visible"/>
	</clipPath>
	<g clip-path="url(#SVGID_150_)">
		<defs>
			<path id="SVGID_151_" d="M464.294,635.373l15.248-0.058c0,0,0.36,7.777-8.261,7.777
				C462.661,643.093,464.294,635.373,464.294,635.373z"/>
		</defs>
		<clipPath id="SVGID_152_">
			<use xlink:href="#SVGID_151_"  overflow="visible"/>
		</clipPath>
		<rect x="459.171" y="630.315" clip-path="url(#SVGID_152_)" fill="#FBDF50" width="25.373" height="17.777"/>
	</g>
</g>
<g>
	<defs>
		<rect id="SVGID_153_" width="640" height="1136"/>
	</defs>
	<clipPath id="SVGID_154_">
		<use xlink:href="#SVGID_153_"  overflow="visible"/>
	</clipPath>
	<g clip-path="url(#SVGID_154_)">
		<defs>
			<path id="SVGID_155_" d="M456.34,613.219l15.248-0.058c0,0,0.36,7.776-8.261,7.776
				C454.707,620.938,456.34,613.219,456.34,613.219z"/>
		</defs>
		<clipPath id="SVGID_156_">
			<use xlink:href="#SVGID_155_"  overflow="visible"/>
		</clipPath>
		<rect x="451.217" y="608.161" clip-path="url(#SVGID_156_)" fill="#FBDF50" width="25.373" height="17.776"/>
	</g>
</g>
<g>
	<defs>
		<rect id="SVGID_157_" width="640" height="1136"/>
	</defs>
	<clipPath id="SVGID_158_">
		<use xlink:href="#SVGID_157_"  overflow="visible"/>
	</clipPath>
	<g clip-path="url(#SVGID_158_)">
		<defs>
			<path id="SVGID_159_" d="M464.498,590.447l15.248-0.057c0,0,0.36,7.776-8.26,7.776
				C462.865,598.167,464.498,590.447,464.498,590.447z"/>
		</defs>
		<clipPath id="SVGID_160_">
			<use xlink:href="#SVGID_159_"  overflow="visible"/>
		</clipPath>
		<rect x="459.375" y="585.391" clip-path="url(#SVGID_160_)" fill="#FBDF50" width="25.373" height="17.776"/>
	</g>
</g>
<g>
	<defs>
		<rect id="SVGID_161_" width="640" height="1136"/>
	</defs>
	<clipPath id="SVGID_162_">
		<use xlink:href="#SVGID_161_"  overflow="visible"/>
	</clipPath>
	<polyline clip-path="url(#SVGID_162_)" fill="none" stroke="#889798" stroke-width="7" stroke-miterlimit="10" points="
		473.649,659.158 495.25,609.823 517.623,659.193 	"/>
</g>
<g>
	<defs>
		<rect id="SVGID_163_" width="640" height="1136"/>
	</defs>
	<clipPath id="SVGID_164_">
		<use xlink:href="#SVGID_163_"  overflow="visible"/>
	</clipPath>
	<g clip-path="url(#SVGID_164_)">
		<defs>
			<path id="SVGID_165_" d="M494.579,603.033c4.447,0,9.633,3.676,9.633,8.505s-2.655,9.829-8.95,9.829
				c-6.294,0-8.273-3.364-8.273-10.85C486.988,603.033,490.132,603.033,494.579,603.033z"/>
		</defs>
		<clipPath id="SVGID_166_">
			<use xlink:href="#SVGID_165_"  overflow="visible"/>
		</clipPath>
		<rect x="481.988" y="598.033" clip-path="url(#SVGID_166_)" fill="#889798" width="27.224" height="28.334"/>
	</g>
</g>
<g>
	<defs>
		<path id="SVGID_167_" d="M486.971,1071.144c5.613,75.164,13.47,192.95-148.195,189.585
			c-161.667-3.365-196.472-70.672-191.98-177.244c4.489-106.57,110.021-151.442,176.261-154.808
			C410.576,924.229,481.354,995.981,486.971,1071.144z"/>
	</defs>
	<clipPath id="SVGID_168_">
		<use xlink:href="#SVGID_167_"  overflow="visible"/>
	</clipPath>
	<rect x="141.425" y="923.479" clip-path="url(#SVGID_168_)" fill="#95D3F8" width="352.812" height="342.319"/>
</g>
<rect fill-rule="evenodd" clip-rule="evenodd" fill="none" width="640" height="1136"/>
<g>
	<defs>
		<path id="SVGID_169_" d="M434.356,1019.307c23.745,12.487,42.492,57.447,12.497,76.179c-29.998,18.734-17.496,47.46-57.491,47.46
			c-39.999,0-37.495-31.224-48.744-46.21c-11.251-14.986-54.996-31.221-34.998-62.441c19.997-31.224,38.746-26.229,52.494-14.987
			c13.745,11.239,24.998,16.232,37.495,16.232C408.109,1035.539,434.356,1019.307,434.356,1019.307"/>
	</defs>
	<clipPath id="SVGID_170_">
		<use xlink:href="#SVGID_169_"  overflow="visible"/>
	</clipPath>
	<rect x="295.455" y="1005.649" clip-path="url(#SVGID_170_)" fill="#3BDE9D" width="171.891" height="142.296"/>
</g>
<rect fill-rule="evenodd" clip-rule="evenodd" fill="none" width="640" height="1136"/>
<g>
	<defs>
		<path id="SVGID_171_" d="M201.882,1109.089c24.476-11.696,46.028,4.492,57.257,16.828c11.229,12.339,41.541,41.501,24.699,62.819
			c-16.837,21.314-59.506,28.04-81.956,0C179.43,1160.692,176.06,1121.43,201.882,1109.089"/>
	</defs>
	<clipPath id="SVGID_172_">
		<use xlink:href="#SVGID_171_"  overflow="visible"/>
	</clipPath>
	<rect x="178.757" y="1100.047" clip-path="url(#SVGID_172_)" fill="#3BDE9D" width="115.067" height="112.282"/>
</g>
<rect fill-rule="evenodd" clip-rule="evenodd" fill="none" width="640" height="1136"/>
<g>
	<defs>
		<path id="SVGID_173_" d="M252.404,983.447c19.022,4.753,16.837,45.996,8.98,61.699c-7.857,15.702-14.597,40.386-52.766,38.139
			c-38.171-2.241-26.941-47.685-12.349-72.64C210.863,985.69,229.947,977.835,252.404,983.447"/>
	</defs>
	<clipPath id="SVGID_174_">
		<use xlink:href="#SVGID_173_"  overflow="visible"/>
	</clipPath>
	<rect x="177.655" y="976.725" clip-path="url(#SVGID_174_)" fill="#3BDE9D" width="94.484" height="111.703"/>
</g>
<rect fill-rule="evenodd" clip-rule="evenodd" fill="none" width="640" height="1136"/>
<line fill="none" stroke="#FBDF50" stroke-width="21" stroke-linecap="round" stroke-linejoin="round" stroke-miterlimit="10" x1="309" y1="847.711" x2="309" y2="901.557"/>
<line fill="none" stroke="#FBDF50" stroke-width="21" stroke-linecap="round" stroke-linejoin="round" stroke-miterlimit="10" x1="404.948" y1="858.929" x2="391.477" y2="913.897"/>
<line fill="none" stroke="#FBDF50" stroke-width="21" stroke-linecap="round" stroke-linejoin="round" stroke-miterlimit="10" x1="498.128" y1="893.706" x2="454.345" y2="940.819"/>
<line fill="none" stroke="#FBDF50" stroke-width="21" stroke-linecap="round" stroke-linejoin="round" stroke-miterlimit="10" x1="554.266" y1="973.352" x2="498.128" y2="993.541"/>
<line fill="none" stroke="#FBDF50" stroke-width="21" stroke-linecap="round" stroke-linejoin="round" stroke-miterlimit="10" x1="584.577" y1="1063.096" x2="510.48" y2="1070.946"/>
<line fill="none" stroke="#FBDF50" stroke-width="21" stroke-linecap="round" stroke-linejoin="round" stroke-miterlimit="10" x1="584.577" y1="1167.423" x2="504.866" y2="1156.188"/>
<line fill="none" stroke="#FBDF50" stroke-width="21" stroke-linecap="round" stroke-linejoin="round" stroke-miterlimit="10" x1="536.303" y1="1271.736" x2="476.238" y2="1238.086"/>
<line fill="none" stroke="#FBDF50" stroke-width="21" stroke-linecap="round" stroke-linejoin="round" stroke-miterlimit="10" x1="416.176" y1="1330.073" x2="398.21" y2="1280.712"/>
<line fill="none" stroke="#FBDF50" stroke-width="21" stroke-linecap="round" stroke-linejoin="round" stroke-miterlimit="10" x1="300.538" y1="1330.073" x2="302.784" y2="1280.712"/>
<line fill="none" stroke="#FBDF50" stroke-width="21" stroke-linecap="round" stroke-linejoin="round" stroke-miterlimit="10" x1="190.517" y1="1305.396" x2="207.356" y2="1260.795"/>
<line fill="none" stroke="#FBDF50" stroke-width="21" stroke-linecap="round" stroke-linejoin="round" stroke-miterlimit="10" x1="84.98" y1="1249.305" x2="144.484" y2="1207.328"/>
<line fill="none" stroke="#FBDF50" stroke-width="21" stroke-linecap="round" stroke-linejoin="round" stroke-miterlimit="10" x1="67.019" y1="1156.188" x2="122.03" y2="1142.94"/>
<line fill="none" stroke="#FBDF50" stroke-width="21" stroke-linecap="round" stroke-linejoin="round" stroke-miterlimit="10" x1="58.037" y1="1063.096" x2="122.03" y2="1067.019"/>
<line fill="none" stroke="#FBDF50" stroke-width="21" stroke-linecap="round" stroke-linejoin="round" stroke-miterlimit="10" x1="84.98" y1="963.248" x2="144.484" y2="993.541"/>
<line fill="none" stroke="#FBDF50" stroke-width="21" stroke-linecap="round" stroke-linejoin="round" stroke-miterlimit="10" x1="175.76" y1="893.706" x2="207.356" y2="940.819"/>
</svg>
